# xmcd
#
# Track frame offsets: 
#        150
#        13056
#        25199
#        34109
#        47854
#        57512
#        69157
#        79803
#        92078
#        102716
#        114793
#        124087
#        137947
#        146275
#        157327
#        166924
#        174967
#        186583
#        196066
#        205770
#        214957
#        227761
#        240287
#        252314
#        264020
#
# Disc length: 3656 seconds
#
# Revision: 0
# Processed by: cddbd v1.5.2PL0 Copyright (c) Steve Scherf et al.
# Submitted via: ExactAudioCopy v1.0b4
#
DISCID=5c0e4619
DTITLE=Johnnie Allan - The Essential Collection
DYEAR=1995
DGENRE=Pop
TTITLE0=Just Remember
TTITLE1=Your Picture
TTITLE2=Angel Love
TTITLE3=Heaven Sent
TTITLE4=Family Rules
TTITLE5=Lonely Days And Lonely Nights
TTITLE6=South To Louisiana
TTITLE7=Cry Foolish Heart
TTITLE8=What'cha Do
TTITLE9=Somewhere On Skid Row
TTITLE10=Promised Land
TTITLE11=I'm Missing You
TTITLE12=I Cried
TTITLE13=You Got Me Whistling
TTITLE14=Let's Do It
TTITLE15=Please Accept My Love
TTITLE16=Let's Go Get Drunk
TTITLE17=Today I Started Loving You Again
TTITLE18=Little White Cloud
TTITLE19=Do You Love Me So
TTITLE20=One More Chance
TTITLE21=Whispering Winds
TTITLE22=Mama And Daddy
TTITLE23=I Wonder Where You Are Tonight
TTITLE24=Unfaithful One
EXTD=
EXTT0=
EXTT1=
EXTT2=
EXTT3=
EXTT4=
EXTT5=
EXTT6=
EXTT7=
EXTT8=
EXTT9=
EXTT10=
EXTT11=
EXTT12=
EXTT13=
EXTT14=
EXTT15=
EXTT16=
EXTT17=
EXTT18=
EXTT19=
EXTT20=
EXTT21=
EXTT22=
EXTT23=
EXTT24=
PLAYORDER=
